<svg width="0" height="0" class="hidden">
  <symbol xmlns="http://www.w3.org/2000/svg" viewBox="0 0 512 512" id="address">
    <path d="M256 0C156.748 0 76 80.748 76 180c0 33.534 9.289 66.26 26.869 94.652l142.885 230.257A15 15 0 00258.499 512h.119a14.997 14.997 0 0012.75-7.292L410.611 272.22C427.221 244.428 436 212.539 436 180 436 80.748 355.252 0 256 0zm128.866 256.818L258.272 468.186l-129.905-209.34C113.734 235.214 105.8 207.95 105.8 180c0-82.71 67.49-150.2 150.2-150.2S406.1 97.29 406.1 180c0 27.121-7.411 53.688-21.234 76.818z"></path>
    <path d="M256 90c-49.626 0-90 40.374-90 90 0 49.309 39.717 90 90 90 50.903 0 90-41.233 90-90 0-49.626-40.374-90-90-90zm0 150.2c-33.257 0-60.2-27.033-60.2-60.2 0-33.084 27.116-60.2 60.2-60.2s60.1 27.116 60.1 60.2c0 32.683-26.316 60.2-60.1 60.2z"></path>
  </symbol>
  <symbol xmlns="http://www.w3.org/2000/svg" viewBox="0 0 511.945 511.945" id="fees">
    <path d="M470.896 192.153l-32.924-32.938v-65.27c0-22.056-17.944-40-40-40h-65.2L281.799 2.942a10.005 10.005 0 00-7.07-2.931L237.476 0h-.003a10 10 0 00-7.069 2.927l-51.05 51.019h-65.382c-22.056 0-40 17.944-40 40v65.374L41.07 192.146c-9.735 9.73-15.097 22.669-15.097 36.434v231.855c0 13.875 5.524 26.476 14.476 35.747.193.231.394.458.611.676.216.216.442.415.672.607 9.271 8.954 21.874 14.48 35.751 14.48h133.49c5.523 0 10-4.478 10-10s-4.477-10-10-10H77.482a31.302 31.302 0 01-14.05-3.318l117.869-117.869 38.374 38.351c9.728 9.723 22.658 15.076 36.411 15.076h.016c13.759-.004 26.692-5.366 36.418-15.098l38.214-38.238 117.778 117.778a31.312 31.312 0 01-14.05 3.318H300.973c-5.523 0-10 4.478-10 10s4.477 10 10 10h133.491c13.875 0 26.478-5.525 35.749-14.478.231-.193.458-.393.674-.609.218-.218.418-.445.612-.677 8.951-9.271 14.475-21.872 14.475-35.746v-231.87c-.001-13.752-5.355-26.683-15.078-36.412zm-32.923-4.648l18.777 18.786a31.753 31.753 0 014.498 5.673l-23.275 23.29zM241.612 20.001l28.969.01 33.914 33.935h-96.849zM55.202 206.299l18.771-18.728v47.65l-23.269-23.254a31.694 31.694 0 014.498-5.668zM49.29 474.485a31.307 31.307 0 01-3.317-14.049V235.513L167.155 356.62zm229.085-79.535c-5.95 5.953-13.861 9.232-22.278 9.235h-.009c-8.413 0-16.323-3.275-22.274-9.223L93.973 255.208V93.945c0-11.028 8.972-20 20-20h284c11.028 0 20 8.972 20 20v68.134a10.074 10.074 0 000 2.392v90.794zm187.598 65.486c0 5.047-1.199 9.816-3.317 14.049L344.874 356.703 465.973 235.53z"></path>
    <path d="M255.973 491.942c-2.63 0-5.21 1.07-7.07 2.93s-2.93 4.44-2.93 7.07 1.07 5.21 2.93 7.07c1.86 1.87 4.44 2.93 7.07 2.93s5.21-1.06 7.07-2.93c1.86-1.86 2.93-4.44 2.93-7.07s-1.07-5.21-2.93-7.07a10.08 10.08 0 00-7.07-2.93zm0-376.059c-52.062 0-94.417 42.354-94.417 94.416 0 52.774 42.935 95.709 95.709 95.709h60.779c5.523 0 10-4.478 10-10s-4.477-10-10-10h-60.779c-41.746 0-75.709-33.963-75.709-75.709 0-41.033 33.383-74.416 74.417-74.416s74.417 33.383 74.417 74.416v20.493c0 7.876-6.408 14.283-14.284 14.283s-14.284-6.407-14.284-14.283v-23.147c0-27.379-22.274-49.653-49.653-49.653-28.79 0-52.211 23.422-52.211 52.212 0 28.789 23.422 52.211 52.211 52.211h15.908c5.523 0 10-4.478 10-10s-4.477-10-10-10h-15.908c-17.761 0-32.211-14.45-32.211-32.212 0-17.761 14.45-32.211 32.211-32.211 16.351 0 29.653 13.303 29.653 29.653v23.147c0 18.904 15.379 34.283 34.284 34.283s34.284-15.379 34.284-34.283v-20.493c-.001-52.062-42.356-94.416-94.417-94.416z"></path>
  </symbol>
  <symbol xmlns="http://www.w3.org/2000/svg" viewBox="0 0 512.076 512.076" id="contact">
    <path d="M498.639 395.039l-103.646-69.12c-13.153-8.701-30.784-5.838-40.508 6.579l-30.191 38.818a12.903 12.903 0 01-16.546 3.482l-5.743-3.166c-19.038-10.377-42.726-23.296-90.453-71.04s-60.672-71.45-71.049-90.453l-3.149-5.743a12.92 12.92 0 013.413-16.606l38.792-30.182c12.412-9.725 15.279-27.351 6.588-40.508l-69.12-103.646C108.12.056 90.25-3.966 76.461 4.323L33.12 30.358A61.136 61.136 0 005.242 66.539c-15.607 56.866-3.866 155.008 140.706 299.597 115.004 114.995 200.619 145.92 259.465 145.92a151.181 151.181 0 0040.107-5.239 61.079 61.079 0 0036.181-27.878l26.061-43.315c8.301-13.792 4.281-31.673-9.123-40.585zm-5.581 31.829l-26.001 43.341a44.103 44.103 0 01-26.027 20.173c-52.497 14.413-144.213 2.475-283.008-136.32S7.29 123.559 21.703 71.054a44.17 44.17 0 0120.198-26.061l43.341-26.001c5.983-3.6 13.739-1.855 17.604 3.959l37.547 56.371 31.514 47.266c3.774 5.707 2.534 13.356-2.85 17.579l-38.801 30.182c-11.808 9.029-15.18 25.366-7.91 38.332l3.081 5.598c10.906 20.002 24.465 44.885 73.967 94.379 49.502 49.493 74.377 63.053 94.37 73.958l5.606 3.089c12.965 7.269 29.303 3.898 38.332-7.91l30.182-38.801c4.224-5.381 11.87-6.62 17.579-2.85l103.637 69.12c5.818 3.862 7.563 11.622 3.958 17.604zM290.161 85.39c80.081.089 144.977 64.986 145.067 145.067 0 4.713 3.82 8.533 8.533 8.533s8.533-3.82 8.533-8.533c-.099-89.503-72.63-162.035-162.133-162.133-4.713 0-8.533 3.82-8.533 8.533s3.82 8.533 8.533 8.533z"></path>
    <path d="M290.161 136.59c51.816.061 93.806 42.051 93.867 93.867a8.533 8.533 0 0017.066 0c-.071-61.238-49.696-110.863-110.933-110.933-4.713 0-8.533 3.82-8.533 8.533s3.82 8.533 8.533 8.533z"></path>
    <path d="M290.161 187.79c23.552.028 42.638 19.114 42.667 42.667a8.533 8.533 0 0017.066 0c-.038-32.974-26.759-59.696-59.733-59.733-4.713 0-8.533 3.82-8.533 8.533s3.82 8.533 8.533 8.533z"></path>
  </symbol>
  <symbol xmlns="http://www.w3.org/2000/svg" viewBox="0 1 511 511.999" id="home">
    <path d="M498.7 222.695c-.016-.011-.028-.027-.04-.039L289.805 13.81C280.902 4.902 269.066 0 256.477 0c-12.59 0-24.426 4.902-33.332 13.809L14.398 222.55c-.07.07-.144.144-.21.215-18.282 18.386-18.25 48.218.09 66.558 8.378 8.383 19.44 13.235 31.273 13.746.484.047.969.07 1.457.07h8.32v153.696c0 30.418 24.75 55.164 55.168 55.164h81.711c8.285 0 15-6.719 15-15V376.5c0-13.879 11.293-25.168 25.172-25.168h48.195c13.88 0 25.168 11.29 25.168 25.168V497c0 8.281 6.715 15 15 15h81.711c30.422 0 55.168-24.746 55.168-55.164V303.14h7.719c12.586 0 24.422-4.903 33.332-13.813 18.36-18.367 18.367-48.254.027-66.633zm-21.243 45.422a17.03 17.03 0 01-12.117 5.024h-22.72c-8.285 0-15 6.714-15 15v168.695c0 13.875-11.289 25.164-25.168 25.164h-66.71V376.5c0-30.418-24.747-55.168-55.169-55.168H232.38c-30.422 0-55.172 24.75-55.172 55.168V482h-66.71c-13.876 0-25.169-11.29-25.169-25.164V288.14c0-8.286-6.715-15-15-15H48a13.9 13.9 0 00-.703-.032c-4.469-.078-8.66-1.851-11.8-4.996-6.68-6.68-6.68-17.55 0-24.234.003 0 .003-.004.007-.008l.012-.012L244.363 35.02A17.003 17.003 0 01256.477 30c4.574 0 8.875 1.781 12.113 5.02l208.8 208.796.098.094c6.645 6.692 6.633 17.54-.031 24.207zm0 0"></path>
  </symbol>
  <symbol xmlns="http://www.w3.org/2000/svg" viewBox="0 0 508.044 508.044" id="right-quote">
    <path d="M507.93 155.673c0-.055.006-.11.006-.165 0-66.793-54.145-120.938-120.938-120.938S266.061 88.714 266.061 155.508c0 66.794 54.15 120.938 120.938 120.938 13.727 0 26.867-2.393 39.162-6.609-27.209 156.09-148.93 256.752-36.096 173.905C515.182 351.874 508.07 159.198 507.93 155.673zM120.938 276.445c13.727 0 26.867-2.393 39.168-6.609-27.216 156.09-148.937 256.752-36.102 173.905 125.117-91.867 118.006-284.543 117.865-288.068 0-.055.006-.11.006-.165 0-66.793-54.144-120.938-120.937-120.938C54.144 34.57 0 88.714 0 155.508c0 66.794 54.15 120.937 120.938 120.937z"></path>
  </symbol>
  <symbol xmlns="http://www.w3.org/2000/svg" viewBox="0 0 508.044 508.044" id="left-quote">
    <path d="M.108 352.536c0 66.794 54.144 120.938 120.937 120.938 66.794 0 120.938-54.144 120.938-120.938s-54.144-120.937-120.938-120.937c-13.727 0-26.867 2.393-39.168 6.61C109.093 82.118 230.814-18.543 117.979 64.303-7.138 156.17-.026 348.84.114 352.371c0 .055-.006.104-.006.165zm266.061 0c0 66.794 54.144 120.938 120.938 120.938s120.938-54.144 120.938-120.938S453.9 231.599 387.106 231.599c-13.728 0-26.867 2.393-39.168 6.61C375.154 82.118 496.875-18.543 384.04 64.303 258.923 156.17 266.034 348.84 266.175 352.371c0 .055-.006.104-.006.165z"></path>
  </symbol>
  <symbol version="1.0" xmlns="http://www.w3.org/2000/svg" viewBox="0 0 999 995" id="services">
    <path d="M401.7 189.7c-14.2 22.3-25.7 40.7-25.5 40.8.2.2 21.2-4.6 46.8-10.5 25.6-6 46.7-10.9 47-10.9.3-.1-4.4-2.4-10.5-5.2-6-2.8-11.2-5.3-11.5-5.5-.8-.9 2.4-2.3 14.8-6.4 71.8-23.9 148.2-6.5 202.6 46 31.9 30.8 51.5 68.3 59.3 113.5 2.4 14 2.4 48.1 0 62-4.8 27.2-13 49.6-26.6 72.3-7.8 13.2-8.7 17-5.1 22.9 2.4 4.1 5.1 5.5 10.5 5.5 6 .1 8.8-2 14.6-11 15.8-24.7 27.7-56.7 32.5-88.2 2.5-15.9 2.5-49.1 0-65-13.4-86.5-72-156.2-153.9-183.1-24.8-8.2-48.2-11.4-76.7-10.6-29 .8-52.3 5.5-77.8 15.6-5.6 2.3-10.6 4.1-11.1 4.1s-1.2-4.4-1.6-9.8c-1.5-20 1.5-22.5-27.8 23.5z"></path>
    <path d="M514.8 250c-23.9 4.1-45 21.2-54.1 44-3.9 9.9-5.1 17.7-4.4 29.8 1.5 29.9 20 53.6 49.2 63.4 6 2 8.9 2.3 21 2.3 12.4-.1 14.9-.4 21.7-2.7 23.8-8 42.5-29.2 47.4-53.8 3.2-16.3-.1-35.1-8.7-49.7-4.2-7.1-14.6-17.8-21.9-22.6-14.3-9.4-33.5-13.5-50.2-10.7z"></path>
    <path d="M340 254.6c-1.7 1.5-5.6 6.9-8.7 12.1-46.6 79.3-40.8 178.9 14.7 252.8 30.5 40.6 77 70.9 127 83 46.5 11.1 97 7.2 140.2-11 4.5-1.9 8.4-3.3 8.6-3 .3.3 1 6.1 1.6 12.9.7 6.9 1.4 12.7 1.6 13 .6.5 51.9-79.7 51.4-80.3-.2-.2-21.3 4.5-46.9 10.5-25.6 5.9-46.2 11.1-45.8 11.5.5.4 5.2 2.7 10.6 5.1 5.4 2.4 9.9 4.8 9.9 5.4 0 .5-5.4 2.8-11.9 5.1C461.9 617.2 326 520.4 326 382c0-35.7 8.9-69 27-100.6 4.4-7.6 8-14.9 8-16.2.1-10.6-13.1-17.2-21-10.6z"></path>
    <path d="M501 408.1c-45.4 5.5-82 24.8-94.2 49.6-3.1 6.4-3.3 7.3-3.3 17.8 0 9.8.3 11.6 2.6 16.5 3.8 8.2 10.9 15.4 18.7 19.2l6.7 3.3h190l5.8-2.8c8-4 15.1-11.2 19-19.4 2.9-6.3 3.2-7.6 3.2-16.9 0-9.6-.1-10.3-3.9-17.9-11.2-22.7-40.8-39.9-82-47.6-12.7-2.4-49.4-3.5-62.6-1.8zm-198.5 234c-16.4 2.2-32.8 8-44.1 15.5-5.1 3.4-7.4 4.1-22.7 7.1-21.2 4.1-20.5 3.8-22.4 7.7-1.4 3.1-1 6.1 10.7 68.7 12.2 65.9 12.6 67.6 17.2 70 1.1.6 9.7 0 23.8-1.6l22.2-2.5 30.6 5.5c42.8 7.8 110.5 21.4 136.7 27.5 19.1 4.5 23.4 5.2 32.5 5.2 5.8 0 13.7-.7 17.5-1.5 3.9-.8 35.5-12.1 70.3-25.1 34.8-13 63.5-23.6 63.8-23.6 1.3 0 21.2-10.4 25.3-13.2 4-2.8 83.4-63 104.4-79.2 18.5-14.2 22.9-31.6 10.5-40.9-3.5-2.7-14.6-3.4-21.1-1.4-2.6.8-19.5 9.6-37.6 19.6L687.3 698l-22.1 5.9c-12.1 3.3-22.9 6.4-24 7-3.1 1.7-4.5 6.2-3.3 10.7.6 2.2 1.1 6.7 1.1 10.1 0 17.1-11.5 29.1-33.5 34.9-5.8 1.6-10.5 1.9-28 1.8-18.1 0-24.4-.5-45.5-3.4-21.5-3-27.2-3.4-46-3.4-19.8 0-22 .1-27.4 2.2-3.3 1.2-7.1 2.2-8.6 2.2-3.5 0-7-3.8-7-7.6 0-4.3 3.4-7.1 12.6-10.2 7.6-2.5 8.7-2.6 29.9-2.6 19.2 0 25 .4 46 3.3 50.2 6.9 76.5 4.9 87.6-6.5 2.9-3 3.4-4.2 3.7-9.8.5-7.4-1.5-12.9-6.8-19-7.7-8.7-26.9-14.4-64.5-19.2-9.5-1.3-22.2-1.8-47-1.9l-34-.2-33-14.8c-18.1-8.1-37.3-16.7-42.6-19.1-23.9-10.7-47-16.2-70.4-16.9-8.2-.2-18.1 0-22 .6z"></path>
  </symbol>
  <symbol xmlns="http://www.w3.org/2000/svg" viewBox="0 0 512 512" id="about">
    <path d="M437.02 74.98C388.668 26.63 324.379 0 256 0 187.617 0 123.332 26.629 74.98 74.98 26.63 123.332 0 187.617 0 256c0 68.379 26.629 132.668 74.98 181.02C123.332 485.37 187.617 512 256 512c68.379 0 132.668-26.629 181.02-74.98C485.37 388.668 512 324.379 512 256c0-68.383-26.629-132.668-74.98-181.02zM128.34 442.387c10.707-61.649 64.129-107.121 127.66-107.121 63.535 0 116.953 45.472 127.66 107.12C347.312 467.36 303.336 482 256 482s-91.313-14.64-127.66-39.613zm46.262-218.52c0-44.887 36.515-81.398 81.398-81.398s81.398 36.515 81.398 81.398c0 44.883-36.515 81.399-81.398 81.399s-81.398-36.516-81.398-81.399zm235.043 197.711c-8.075-28.7-24.11-54.738-46.586-75.078a159.444 159.444 0 00-46.36-29.27c30.5-19.894 50.703-54.312 50.703-93.363 0-61.426-49.976-111.398-111.402-111.398S144.602 162.44 144.602 223.867c0 39.051 20.203 73.469 50.699 93.363a159.483 159.483 0 00-46.36 29.266c-22.472 20.34-38.511 46.379-46.586 75.078C57.883 380.274 30 321.336 30 256 30 131.383 131.383 30 256 30s226 101.383 226 226c0 65.34-27.883 124.277-72.355 165.578zm0 0"></path>
  </symbol>
  <symbol xmlns="http://www.w3.org/2000/svg" viewBox="0 -32 512 512" id="training">
    <path d="M464.867 0H239.934C213.945 0 192.8 21.145 192.8 47.133v144.293l-41.766-20.77a90.857 90.857 0 00-4.289-1.996c12.262-12.8 19.82-30.144 19.82-49.226 0-39.278-31.953-71.235-71.23-71.235-39.281 0-71.234 31.957-71.234 71.235 0 21.343 9.449 40.515 24.37 53.582C20.993 188.476 0 218.636 0 256v48.2c0 20.75 13.473 38.41 32.133 44.687v83.847c0 8.282 6.715 15 15 15h96.398c8.285 0 15-6.718 15-15V264.2l48.024 24.008c18.379 9.188 43.308 3.711 54.582-17.207h53.781l-56.95 156.605c-2.831 7.786 1.188 16.395 8.973 19.223 8.899 3.238 16.813-2.344 19.223-8.969L346.84 271h10.515l61.297 166.906c2.328 6.332 10.184 12.239 19.254 8.906 7.774-2.855 11.766-11.472 8.907-19.25L389.313 271h75.554C490.352 271 512 250.441 512 223.867V47.133C512 20.555 490.352 0 464.867 0zM54.102 119.434c0-22.739 18.496-41.235 41.23-41.235 22.738 0 41.234 18.496 41.234 41.235 0 22.734-18.496 41.23-41.234 41.23-22.734 0-41.23-18.496-41.23-41.23zM235.5 254.96c-.04.11-.078.223-.113.336-1.024 2.855-3.336 5.262-6.168 6.426a11.232 11.232 0 01-9.246-.348c-28.524-14.27-69.739-34.86-69.739-34.86-9.953-4.976-21.703 2.274-21.703 13.419v177.8H62.133v-81.402c0-8.281-6.719-15-15-15-9.45 0-17.133-7.684-17.133-17.133V256c0-36.652 29.844-65.332 65.332-65.332h13.254c10.055 0 20.098 2.36 29.07 6.84 0 0 74.403 37 93.352 46.437 4.058 2.016 5.988 6.75 4.492 11.016zM482 223.867c0 4.582-1.777 8.883-5.012 12.117-3.183 3.188-7.601 5.016-12.12 5.016h-200.47c-.027-.082-.046-.164-.074-.242l37.227-74.45c3.703-7.41.703-16.417-6.707-20.124-7.406-3.704-16.418-.704-20.125 6.707l-31.75 63.496c-5.918-2.95-12.797-6.375-20.168-10.04V47.134c0-9.446 7.683-17.133 17.133-17.133h224.933c4.52 0 8.938 1.828 12.125 5.023 3.23 3.227 5.008 7.528 5.008 12.11zm0 0"></path>
    <path d="M432.734 64.266H272.066c-8.285 0-15 6.714-15 15s6.715 15 15 15h160.668c8.282 0 15-6.715 15-15s-6.714-15-15-15zm0 56.234h-80.336c-8.28 0-15 6.715-15 15s6.72 15 15 15h80.336c8.282 0 15-6.715 15-15s-6.714-15-15-15zm0 56.234h-80.336c-8.28 0-15 6.715-15 15 0 8.282 6.72 15 15 15h80.336c8.282 0 15-6.718 15-15 0-8.285-6.714-15-15-15zm0 0"></path>
  </symbol>
  <symbol xmlns="http://www.w3.org/2000/svg" viewBox="0 0 512 512" id="email">
    <path d="M467 76H45C20.137 76 0 96.262 0 121v270c0 24.885 20.285 45 45 45h422c24.655 0 45-20.03 45-45V121c0-24.694-20.057-45-45-45zm-6.302 30L287.82 277.967c-8.5 8.5-19.8 13.18-31.82 13.18s-23.32-4.681-31.848-13.208L51.302 106h409.396zM30 384.894V127.125L159.638 256.08 30 384.894zM51.321 406l129.587-128.763 22.059 21.943c14.166 14.166 33 21.967 53.033 21.967s38.867-7.801 53.005-21.939l22.087-21.971L460.679 406H51.321zM482 384.894L352.362 256.08 482 127.125v257.769z"></path>
  </symbol>
  <symbol xmlns="http://www.w3.org/2000/svg" viewBox="0 0 512 512" id="right-arrow">
    <path d="M506.134 241.843l-.018-.019-104.504-104c-7.829-7.791-20.492-7.762-28.285.068-7.792 7.829-7.762 20.492.067 28.284L443.558 236H20c-11.046 0-20 8.954-20 20s8.954 20 20 20h423.557l-70.162 69.824c-7.829 7.792-7.859 20.455-.067 28.284 7.793 7.831 20.457 7.858 28.285.068l104.504-104 .018-.019c7.833-7.818 7.808-20.522-.001-28.314z"></path>
  </symbol>
  <symbol xmlns="http://www.w3.org/2000/svg" viewBox="0 0 512.001 512.001" id="faq">
    <path d="M481.33 412.242c20.107-27.376 30.67-59.188 30.67-92.717 0-53.672-27.834-103.502-74.792-134.598-4.331-47.819-26.659-92.166-63.991-126.335C331.936 20.809 277.167 0 219 0S106.065 20.809 64.783 58.593C23.007 96.828 0 147.806 0 202.136c0 41.788 13.471 81.406 39.079 115.304L1.458 410.504a19.997 19.997 0 004.621 21.855 19.995 19.995 0 0021.989 3.942l107.301-47.3a230.189 230.189 0 0041.547 11.551c14.543 23.918 35.287 44.173 60.505 58.917 28.154 16.459 60.661 25.254 94.098 25.507.491.036.981.075 1.482.075 23.117 0 45.515-3.993 66.703-11.88l84.229 37.13a19.991 19.991 0 0021.989-3.942 19.998 19.998 0 004.621-21.855l-29.213-72.262zm-41.441 4.215l15.109 37.375-46.837-20.646a20 20 0 00-15.916-.095c-18.357 7.832-38.014 11.846-58.435 11.95-.27-.011-.536-.041-.81-.041-39.414 0-76.65-15.402-102.664-41.023 32.983-1.58 65.313-10.003 94.137-24.641 9.849-5.002 13.777-17.04 8.775-26.889-5.001-9.848-17.04-13.775-26.889-8.775-26.534 13.477-56.743 20.6-87.359 20.6-26.604 0-52.217-5.172-76.124-15.373a19.991 19.991 0 00-15.916.095l-69.958 30.839 23.554-58.266a19.999 19.999 0 00-3.321-20.47C52.876 272.519 40 238.299 40 202.136 40 112.733 120.299 40 219 40s179 72.733 179 162.136c0 28.876-8.489 57.224-24.552 81.979-6.012 9.266-3.374 21.651 5.893 27.663 9.264 6.014 21.65 3.374 27.664-5.892 14.254-21.969 23.777-46.225 28.181-71.417C458.615 257.413 472 287.634 472 319.525c0 27.926-9.955 54.366-28.79 76.461a20.001 20.001 0 00-3.321 20.471zM238 305c0 11.046-8.954 20-20 20s-20-8.954-20-20 8.954-20 20-20 20 8.954 20 20zm55.983-149.848c.012.278.018.556.018.837a74.928 74.928 0 01-45.573 69.022c-5.73 2.447-9.434 8.218-9.434 14.701V241c0 11.046-8.954 20-20 20s-20-8.954-20-20v-1.287c0-22.531 13.239-42.741 33.729-51.488a34.982 34.982 0 0021.273-31.653 22.218 22.218 0 01-.008-.578c0-19.295-15.698-34.993-34.994-34.993C199.699 121 184 136.698 184 155.993c0 11.046-8.954 20-20 20s-20-8.954-20-20C144 114.642 177.642 81 218.994 81c41.071 0 74.538 33.187 74.989 74.152z"></path>
  </symbol>
  <symbol xmlns="http://www.w3.org/2000/svg" viewBox="0 0 512 512" id="chevron">
    <path d="m256 512c-68.378906 0-132.667969-26.628906-181.019531-74.980469-48.351563-48.351562-74.980469-112.640625-74.980469-181.019531s26.628906-132.667969 74.980469-181.019531c48.351562-48.351563 112.640625-74.980469 181.019531-74.980469s132.667969 26.628906 181.019531 74.980469c48.351563 48.351562 74.980469 112.640625 74.980469 181.019531s-26.628906 132.667969-74.980469 181.019531c-48.351562 48.351563-112.640625 74.980469-181.019531 74.980469zm0-472c-119.101562 0-216 96.898438-216 216s96.898438 216 216 216 216-96.898438 216-216-96.898438-216-216-216zm138.285156 182-28.285156-28.285156-110 110-110-110-28.285156 28.285156 138.285156 138.285156zm0 0"></path>
  </symbol>
  <symbol id="menu" enable-background="new 0 0 24 24" xmlns="http://www.w3.org/2000/svg" viewBox="0 0 24 24">
    <g>
      <path d="m21.5 24h-19c-1.379 0-2.5-1.122-2.5-2.5v-19c0-1.378 1.121-2.5 2.5-2.5h19c1.379 0 2.5 1.122 2.5 2.5v19c0 1.378-1.121 2.5-2.5 2.5zm-19-23c-.827 0-1.5.673-1.5 1.5v19c0 .827.673 1.5 1.5 1.5h19c.827 0 1.5-.673 1.5-1.5v-19c0-.827-.673-1.5-1.5-1.5z"></path>
    </g>
    <g>
      <path d="m16.5 8h-9c-.276 0-.5-.224-.5-.5s.224-.5.5-.5h9c.276 0 .5.224.5.5s-.224.5-.5.5z"></path>
    </g>
    <g>
      <path d="m16.5 12.5h-9c-.276 0-.5-.224-.5-.5s.224-.5.5-.5h9c.276 0 .5.224.5.5s-.224.5-.5.5z"></path>
    </g>
    <g>
      <path d="m16.5 17h-9c-.276 0-.5-.224-.5-.5s.224-.5.5-.5h9c.276 0 .5.224.5.5s-.224.5-.5.5z"></path>
    </g>
  </symbol>
</svg>